<svg xmlns="http://www.w3.org/2000/svg" width="161.234" height="56.602" viewBox="0 0 161.234 56.602">
  <g id="logo" transform="translate(-1.883 -7.837)">
    <rect id="Rectangle_1" data-name="Rectangle 1" width="10.508" height="26.994" transform="translate(59.293 16.204)" fill="#343d4c"/>
    <path id="Path_1" data-name="Path 1" d="M74.511,26.677v6.045A10.473,10.473,0,0,0,84.985,43.2h31.557V29.752H106.034v6.223H87.918a2.9,2.9,0,0,1-2.9-2.9V26.324a2.9,2.9,0,0,1,2.9-2.9h28.623V16.2H84.984A10.472,10.472,0,0,0,74.511,26.677" fill="#343d4c"/>
    <path id="Path_2" data-name="Path 2" d="M152.411,16.2l-9.964,9.963L132.482,16.2H121.976V43.2h10.506V27.166l9.965,9.963,9.964-9.963V43.2h10.507V16.2Z" fill="#343d4c"/>
    <rect id="Rectangle_2" data-name="Rectangle 2" width="44.416" height="3.084" transform="translate(3.752 52.285)" fill="#44ab9a"/>
    <rect id="Rectangle_3" data-name="Rectangle 3" width="44.416" height="3.084" transform="translate(3.752 58.453)" fill="#0ebbe6"/>
    <path id="Path_3" data-name="Path 3" d="M41.907,10.063a23.894,23.894,0,0,0-2.938-2.226l-9.344,9.676,2.543,2.635L39.362,12.7a20.4,20.4,0,0,1,3.791,26.416L12.95,7.837A24.076,24.076,0,0,0,8.489,44.668L22.3,30.373l-2.544-2.634L8.765,39.115A20.416,20.416,0,0,1,12.555,12.7L43.43,44.668a24.073,24.073,0,0,0-1.523-34.6" fill="#343d4c"/>
    <path id="Path_4" data-name="Path 4" d="M59.955,61.535a.48.48,0,0,1-.275-.115.526.526,0,0,1-.15-.441.544.544,0,0,1,.166-.455.477.477,0,0,1,.26-.127h3.121a1.138,1.138,0,0,0,.828-.342,1.326,1.326,0,0,0,.345-.982,1.212,1.212,0,0,0-.3-.848,2.454,2.454,0,0,0-.883-.576L61.2,56.838c-.268-.113-.516-.232-.746-.355a2.422,2.422,0,0,1-.6-.455,2.075,2.075,0,0,1-.4-.648,2.533,2.533,0,0,1-.153-.947,2.828,2.828,0,0,1,.155-.939,2.193,2.193,0,0,1,.446-.762,2.075,2.075,0,0,1,.724-.5,2.456,2.456,0,0,1,.979-.186h2.873a.455.455,0,0,1,.283.143.568.568,0,0,1,.158.441.52.52,0,0,1-.152.447.5.5,0,0,1-.289.107H61.6a1.073,1.073,0,0,0-.439.092,1.241,1.241,0,0,0-.373.258,1.176,1.176,0,0,0-.263.391,1.253,1.253,0,0,0-.1.5,1.1,1.1,0,0,0,.254.775,2.165,2.165,0,0,0,.734.492l1.771.768c.266.113.53.24.8.377a3.3,3.3,0,0,1,.708.492,2.178,2.178,0,0,1,.5.689,2.3,2.3,0,0,1,.192.988,3.115,3.115,0,0,1-.149.969,2.457,2.457,0,0,1-.437.8,2.06,2.06,0,0,1-.714.557,2.223,2.223,0,0,1-.979.207H59.955Zm.222-11.443a.291.291,0,0,1-.11-.242.6.6,0,0,1,.1-.313.348.348,0,0,1,.324-.172.9.9,0,0,1,.248.043.627.627,0,0,1,.248.143l1.361,1.023,1.472-1.152a.357.357,0,0,1,.247-.086.451.451,0,0,1,.249.072,1.919,1.919,0,0,1,.2.178.347.347,0,0,1,.089.248.339.339,0,0,1-.082.215,1.157,1.157,0,0,1-.179.172l-1.6,1.365a.4.4,0,0,1-.3.129,1.888,1.888,0,0,1-.241-.016.447.447,0,0,1-.24-.129Z" fill="#343d4c"/>
    <path id="Path_5" data-name="Path 5" d="M67.991,59.258a1.5,1.5,0,0,0,.233.875.9.9,0,0,0,.793.334h.205a.449.449,0,0,1,.337.135.589.589,0,0,1,.129.42.625.625,0,0,1-.138.436.439.439,0,0,1-.331.148h-.234a2.089,2.089,0,0,1-1.581-.568,2.506,2.506,0,0,1-.547-1.779V52.07a.467.467,0,0,1,.135-.328.572.572,0,0,1,.439-.143.555.555,0,0,1,.419.143.449.449,0,0,1,.141.328Z" fill="#343d4c"/>
    <path id="Path_6" data-name="Path 6" d="M69.51,64.438a.421.421,0,0,1-.31-.15.587.587,0,0,1-.146-.434.469.469,0,0,1,.455-.525h.69a1.482,1.482,0,0,0,.979-.32,1.289,1.289,0,0,0,.387-1.047V56.056H70.251a.443.443,0,0,1-.295-.129.524.524,0,0,1-.144-.412.544.544,0,0,1,.146-.428.45.45,0,0,1,.3-.127h1.9a.538.538,0,0,1,.395.143.556.556,0,0,1,.145.412l.014,6.477a2.423,2.423,0,0,1-.642,1.828,2.506,2.506,0,0,1-1.815.619H69.51Zm2.512-10.76a.672.672,0,0,1-.483-.2.652.652,0,0,1-.207-.484.644.644,0,0,1,.207-.525.693.693,0,0,1,.455-.172.756.756,0,0,1,.484.164.639.639,0,0,1,.207.533.684.684,0,0,1-.187.484.626.626,0,0,1-.476.2" fill="#343d4c"/>
    <path id="Path_7" data-name="Path 7" d="M75.011,54.873a.571.571,0,0,1,.429.15.436.436,0,0,1,.145.305v3.7a1.555,1.555,0,0,0,.117.633,1.207,1.207,0,0,0,.313.428,1.157,1.157,0,0,0,.451.234,1.991,1.991,0,0,0,.532.07h1.941V55.357a.463.463,0,0,1,.132-.307.55.55,0,0,1,.435-.148.573.573,0,0,1,.421.143.429.429,0,0,1,.145.313V60.9a.843.843,0,0,1-.131.412.516.516,0,0,1-.49.229h-2.5a2.569,2.569,0,0,1-1.822-.627,2.438,2.438,0,0,1-.678-1.879v-3.7a.46.46,0,0,1,.131-.305.532.532,0,0,1,.427-.151" fill="#343d4c"/>
    <path id="Path_8" data-name="Path 8" d="M86.524,61.6a.594.594,0,0,1-.446-.135.455.455,0,0,1-.127-.32V57.462a1.556,1.556,0,0,0-.116-.633,1.145,1.145,0,0,0-.317-.426,1.256,1.256,0,0,0-.456-.236,1.991,1.991,0,0,0-.532-.07H82.585V61.15a.465.465,0,0,1-.125.313.567.567,0,0,1-.441.143.581.581,0,0,1-.429-.143.444.444,0,0,1-.138-.313V55.6a.858.858,0,0,1,.131-.414.523.523,0,0,1,.492-.227h2.519a2.559,2.559,0,0,1,1.826.625,2.466,2.466,0,0,1,.665,1.879v3.688a.47.47,0,0,1-.125.313.575.575,0,0,1-.436.141" fill="#343d4c"/>
    <path id="Path_9" data-name="Path 9" d="M90.8,61.533a3.184,3.184,0,0,1-1.009-.154A2.232,2.232,0,0,1,89,60.916a2.029,2.029,0,0,1-.51-.766,2.969,2.969,0,0,1-.18-1.072v-1.6a2.876,2.876,0,0,1,.188-1.08,2.161,2.161,0,0,1,.518-.787,2.1,2.1,0,0,1,.78-.477,2.931,2.931,0,0,1,.972-.156h1.851a.441.441,0,0,1,.29.148.572.572,0,0,1,.152.428.554.554,0,0,1-.146.428.432.432,0,0,1-.3.137H90.811a1.383,1.383,0,0,0-.979.354,1.343,1.343,0,0,0-.387,1.039V59.03a1.3,1.3,0,0,0,.387,1.025,1.423,1.423,0,0,0,.979.342h1.878a.442.442,0,0,1,.3.135.7.7,0,0,1-.006.862.454.454,0,0,1-.3.141H90.8Zm-2.1-9.008a.286.286,0,0,1-.11-.242.611.611,0,0,1,.1-.313.352.352,0,0,1,.326-.172.91.91,0,0,1,.248.043.656.656,0,0,1,.249.143c.229.189.454.377.676.561s.45.373.69.564l1.477-1.254a.361.361,0,0,1,.249-.086.458.458,0,0,1,.249.072,1.907,1.907,0,0,1,.2.178.34.34,0,0,1,.09.248.333.333,0,0,1-.082.215,1.061,1.061,0,0,1-.18.17l-1.6,1.465a.4.4,0,0,1-.3.129,1.871,1.871,0,0,1-.241-.014.447.447,0,0,1-.242-.127Z" fill="#343d4c"/>
    <path id="Path_10" data-name="Path 10" d="M99.689,60.908a.753.753,0,0,1-.138.42.456.456,0,0,1-.4.207H95.671A1.7,1.7,0,0,1,95,61.4a1.614,1.614,0,0,1-.546-.391,1.949,1.949,0,0,1-.372-.609,2.2,2.2,0,0,1-.138-.809V59.42a1.99,1.99,0,0,1,.117-.672,1.725,1.725,0,0,1,.925-1.014,1.864,1.864,0,0,1,.793-.156h2.775v-.244a1.3,1.3,0,0,0-.324-.906,1.251,1.251,0,0,0-.974-.359h-1.85a.445.445,0,0,1-.441-.511.593.593,0,0,1,.144-.441.432.432,0,0,1,.3-.143H97.3a2.373,2.373,0,0,1,1.781.627,2.5,2.5,0,0,1,.607,1.807v3.5Zm-3.617-2.291a1.331,1.331,0,0,0-.684.182.683.683,0,0,0-.311.637v.1a.746.746,0,0,0,.289.656,1.168,1.168,0,0,0,.689.2h2.5V58.618H96.072Z" fill="#343d4c"/>
    <path id="Path_11" data-name="Path 11" d="M102.283,56.111v5.053a.436.436,0,0,1-.131.3.546.546,0,0,1-.42.143.617.617,0,0,1-.436-.135.411.411,0,0,1-.146-.305V56a3.858,3.858,0,0,1,.042-.541.683.683,0,0,1,.165-.318.529.529,0,0,1,.428-.162h1.78a2.291,2.291,0,0,1,.8.139,2.4,2.4,0,0,1,.649.359,1.7,1.7,0,0,1,.428.477,1.015,1.015,0,0,1,.151.5.557.557,0,0,1-.276.471.717.717,0,0,1-.344.113.4.4,0,0,1-.318-.172c-.047-.057-.092-.115-.139-.178s-.1-.125-.151-.191a1.305,1.305,0,0,0-.953-.384h-1.131Z" fill="#343d4c"/>
    <path id="Path_12" data-name="Path 12" d="M111.934,60.908a.738.738,0,0,1-.138.42.456.456,0,0,1-.4.207h-3.479a1.687,1.687,0,0,1-.669-.135,1.6,1.6,0,0,1-.546-.391,1.971,1.971,0,0,1-.373-.609,2.217,2.217,0,0,1-.137-.809V59.42a1.99,1.99,0,0,1,.117-.672,1.72,1.72,0,0,1,.352-.6,1.7,1.7,0,0,1,.572-.418,1.867,1.867,0,0,1,.795-.156H110.8v-.244a1.3,1.3,0,0,0-.325-.906,1.248,1.248,0,0,0-.973-.359h-1.85a.445.445,0,0,1-.442-.511.593.593,0,0,1,.144-.441.433.433,0,0,1,.3-.143h1.891a2.368,2.368,0,0,1,1.781.627,2.5,2.5,0,0,1,.607,1.807v3.5Zm-3.618-2.291a1.334,1.334,0,0,0-.684.182.683.683,0,0,0-.311.637v.1a.747.747,0,0,0,.29.656,1.165,1.165,0,0,0,.689.2h2.5V58.618h-2.484Z" fill="#343d4c"/>
    <path id="Path_13" data-name="Path 13" d="M120.6,53.18v7.857a.634.634,0,0,1-1.007.447.609.609,0,0,1-.126-.447V53.18H117.24c-.341,0-.51-.189-.51-.568s.169-.57.51-.57H122.8c.348,0,.524.191.524.57s-.177.568-.524.568Z" fill="#343d4c"/>
    <path id="Path_14" data-name="Path 14" d="M124.792,56.111v5.053a.437.437,0,0,1-.132.3.542.542,0,0,1-.42.143.62.62,0,0,1-.436-.135.411.411,0,0,1-.146-.305V56a3.858,3.858,0,0,1,.042-.541.7.7,0,0,1,.165-.318.533.533,0,0,1,.429-.162h1.781a2.293,2.293,0,0,1,.8.139,2.4,2.4,0,0,1,.648.359,1.7,1.7,0,0,1,.428.477,1,1,0,0,1,.151.5.557.557,0,0,1-.274.471.727.727,0,0,1-.346.113.4.4,0,0,1-.318-.172c-.046-.057-.092-.115-.138-.178s-.1-.125-.151-.191a1.305,1.305,0,0,0-.954-.384h-1.13Z" fill="#343d4c"/>
    <path id="Path_15" data-name="Path 15" d="M129.265,61.535a.477.477,0,0,1-.29-.121.549.549,0,0,1-.152-.455.5.5,0,0,1,.18-.438.566.566,0,0,1,.263-.127H132.1a.821.821,0,0,0,.544-.178.615.615,0,0,0,.214-.506.538.538,0,0,0-.2-.436,1.736,1.736,0,0,0-.6-.279l-1.629-.5a5.684,5.684,0,0,1-.662-.229,1.956,1.956,0,0,1-.531-.328,1.4,1.4,0,0,1-.359-.492,1.753,1.753,0,0,1-.131-.721,1.68,1.68,0,0,1,1.863-1.77h2.568a.532.532,0,0,1,.283.121.517.517,0,0,1,.172.449.535.535,0,0,1-.158.447.509.509,0,0,1-.3.121H130.6a.889.889,0,0,0-.523.143.523.523,0,0,0-.207.469.447.447,0,0,0,.2.385,2.023,2.023,0,0,0,.576.256l1.635.469a5.519,5.519,0,0,1,.686.258,1.986,1.986,0,0,1,.539.355,1.448,1.448,0,0,1,.354.52,1.971,1.971,0,0,1,.124.734,2.117,2.117,0,0,1-.117.7,1.691,1.691,0,0,1-.353.59,1.613,1.613,0,0,1-.594.406,2.152,2.152,0,0,1-.827.15h-2.832Z" fill="#343d4c"/>
    <path id="Path_16" data-name="Path 16" d="M138.97,60.41a.466.466,0,0,1,.317.143.57.57,0,0,1,.152.434.546.546,0,0,1-.152.426.478.478,0,0,1-.317.137h-.856a2.933,2.933,0,0,1-.926-.137,1.786,1.786,0,0,1-.709-.418,1.885,1.885,0,0,1-.453-.732,3.2,3.2,0,0,1-.161-1.076V56.042h-.7a.456.456,0,0,1-.293-.121.523.523,0,0,1-.144-.42.532.532,0,0,1,.144-.414.445.445,0,0,1,.293-.127h.682l.015-2.021a.456.456,0,0,1,.13-.314.563.563,0,0,1,.422-.141.611.611,0,0,1,.435.141.44.44,0,0,1,.146.314V54.96h1.535a.446.446,0,0,1,.295.127.532.532,0,0,1,.144.414.523.523,0,0,1-.144.42.457.457,0,0,1-.295.121H137v3.064a1.281,1.281,0,0,0,.338,1.014,1.369,1.369,0,0,0,.918.291h.715Z" fill="#343d4c"/>
    <path id="Path_17" data-name="Path 17" d="M141.221,58.83v.3a1.227,1.227,0,0,0,.387.961,1.43,1.43,0,0,0,.994.348h1.933a.451.451,0,0,1,.456.527.561.561,0,0,1-.151.428.455.455,0,0,1-.3.143h-2.015a2.756,2.756,0,0,1-.967-.164,2.255,2.255,0,0,1-.768-.469,2.124,2.124,0,0,1-.51-.76,2.761,2.761,0,0,1-.188-1.051V57.5a2.724,2.724,0,0,1,.2-1.072,2.235,2.235,0,0,1,1.34-1.287,2.936,2.936,0,0,1,1-.17h.484a2.686,2.686,0,0,1,.938.164,2.228,2.228,0,0,1,1.318,1.275,2.782,2.782,0,0,1,.2,1.084v.709a.8.8,0,0,1-.133.406.521.521,0,0,1-.49.219Zm3.217-1.338a1.284,1.284,0,0,0-.4-1.053,1.493,1.493,0,0,0-.98-.328h-.483a1.44,1.44,0,0,0-.944.334,1.273,1.273,0,0,0-.408,1.047v.371h3.217v-.371Z" fill="#343d4c"/>
    <path id="Path_18" data-name="Path 18" d="M151.857,61.6a.6.6,0,0,1-.447-.135.454.454,0,0,1-.126-.32V57.462a1.556,1.556,0,0,0-.116-.633,1.137,1.137,0,0,0-.318-.426,1.243,1.243,0,0,0-.455-.236,2,2,0,0,0-.532-.07h-1.946V61.15a.464.464,0,0,1-.124.313.567.567,0,0,1-.442.143.577.577,0,0,1-.428-.143.441.441,0,0,1-.139-.313V55.6a.85.85,0,0,1,.132-.414.523.523,0,0,1,.492-.227h2.519a2.557,2.557,0,0,1,1.826.625,2.466,2.466,0,0,1,.664,1.879v3.688a.466.466,0,0,1-.125.313.568.568,0,0,1-.435.141" fill="#343d4c"/>
    <path id="Path_19" data-name="Path 19" d="M155.551,61.6a.577.577,0,0,1-.436-.143.448.448,0,0,1-.131-.313V56.067h-1.159a.448.448,0,0,1-.3-.135.532.532,0,0,1-.152-.42.548.548,0,0,1,.146-.428.468.468,0,0,1,.311-.127h1.726a.547.547,0,0,1,.428.156.49.49,0,0,1,.137.328v5.707a.469.469,0,0,1-.129.307.561.561,0,0,1-.437.15m-.124-7.927a.647.647,0,0,1-.476-.2.654.654,0,0,1-.2-.484.646.646,0,0,1,.207-.512.674.674,0,0,1,.455-.186.76.76,0,0,1,.484.164.639.639,0,0,1,.207.533.673.673,0,0,1-.193.484.647.647,0,0,1-.483.2" fill="#343d4c"/>
    <path id="Path_20" data-name="Path 20" d="M162.881,61.463a.674.674,0,0,1-.373.129.508.508,0,0,1-.454-.285l-1.864-3.529-1.146.854v2.52a.442.442,0,0,1-.131.32.587.587,0,0,1-.435.135.621.621,0,0,1-.421-.127.422.422,0,0,1-.146-.328v-9.08a.42.42,0,0,1,.146-.32.746.746,0,0,1,.856,0,.439.439,0,0,1,.131.32v5.266l2.941-2.264a.622.622,0,0,1,.373-.127.574.574,0,0,1,.386.156.507.507,0,0,1-.027.8l-1.587,1.223,1.918,3.66a.435.435,0,0,1,.069.227.518.518,0,0,1-.069.262.643.643,0,0,1-.167.192" fill="#343d4c"/>
  </g>
</svg>
